<?xml version="1.0" encoding="UTF-8"?>
<svg width="512px" height="512px" viewBox="0 0 512 512" version="1.1" xmlns="http://www.w3.org/2000/svg" xmlns:xlink="http://www.w3.org/1999/xlink">
    <title>plus_green_btn</title>
    <g id="Page-1" stroke="none" stroke-width="1" fill="none" fill-rule="evenodd">
        <g id="plus_green_btn" fill="#1BCAB1" fill-rule="nonzero">
            <path d="M256,0 C114.845538,0 0,114.835692 0,256 C0,397.164308 114.845538,512 256,512 C397.154462,512 512,397.164308 512,256 C512,114.835692 397.154462,0 256,0 Z M379.076923,275.692308 L275.692308,275.692308 L266.988835,275.692308 C263.529934,275.692308 266.870154,275.692308 256,275.692308 C248.8672,275.692308 251.869291,275.545091 251.162405,275.692308 C250.79202,275.769444 249.271985,275.769444 245.590155,275.692308 L236.307692,275.692308 L132.923077,275.692308 C122.052923,275.692308 113.230769,266.870154 113.230769,256 C113.230769,245.129846 122.052923,236.307692 132.923077,236.307692 L236.307692,236.307692 L245.590155,236.307692 C256,236.307692 245.129846,236.307692 256,236.307692 C266.870154,236.307692 266.988835,236.307692 266.988835,236.307692 L275.692308,236.307692 L379.076923,236.307692 C389.947077,236.307692 398.769231,245.129846 398.769231,256 C398.769231,266.870154 389.947077,275.692308 379.076923,275.692308 Z" id="Shape"></path>
        </g>
    </g>
</svg>