<svg id="eb7HcBUVtLR1" xmlns="http://www.w3.org/2000/svg" xmlns:xlink="http://www.w3.org/1999/xlink" viewBox="0 0 24 24" shape-rendering="geometricPrecision" text-rendering="geometricPrecision"><path d="M12.3586,0C9.7967,0,7.7124,2.08425,7.7124,4.6462s2.08425,4.64616,4.6462,4.64616s4.6462-2.08425,4.6462-4.64616-2.0842-4.6462-4.6462-4.6462Z" fill="#f3d27d"/><path d="M12.3586,0C9.7967,0,7.7124,2.08425,7.7124,4.6462s2.08426,4.64616,4.6462,4.64616v-9.29236Z" fill="#ffd159"/><path d="M15.1005,10.2656h-5.4839c-1.93852,0-3.53091,1.5819-3.53091,3.5204v6.8901c0,1.1632.96155,2.1051,2.12466,2.1051h8.29645c1.1631,0,2.0946-.9419,2.0946-2.1051v-6.8901c0-1.9385-1.5624-3.5204-3.5009-3.5204Z" transform="translate(.015055 0)" fill="#f3d27d"/><path d="M12.3585,10.2656h-2.7419c-1.93852,0-3.53091,1.5819-3.53091,3.5204v6.8901c0,1.1632.96155,2.1051,2.12466,2.1051h4.14825l-.0001-12.5156Z" transform="translate(.015055 0)" fill="#ffd159"/></svg>
